{"accessors" : [{"bufferView" : 0, "byteOffset" : 0, "componentType" : 5123, "count" : 43080, "type" : "SCALAR", "max" : [34843], "min" : [0]}, {"bufferView" : 1, "byteOffset" : 0, "componentType" : 5126, "count" : 34844, "type" : "VEC3", "max" : [4.778318405151367, 4.159892559051514, 1.9018563032150269], "min" : [-2.138685464859009, -1.3826208114624023, -1.9018563032150269], "name" : "POSITION"}, {"bufferView" : 1, "byteOffset" : 12, "componentType" : 5126, "count" : 34844, "type" : "VEC3", "max" : [1.0000032186508179, 1.0000044107437134, 0.999901294708252], "min" : [-1.0000020265579224, -1.0000040531158447, -0.999901294708252], "name" : "NORMAL"}, {"bufferView" : 1, "byteOffset" : 24, "componentType" : 5126, "count" : 34844, "type" : "VEC2", "max" : [0.9778318405151367, 0.7978276014328003], "min" : [0.28613147139549255, 0.10501345992088318], "name" : "TEXCOORD_0"}], "asset" : {"generator" : "Aspose.3D 23.6.0", "version" : "2.0"}, "buffers" : [{"uri" : "data:application/octet-stream;base64,", "byteLength" : 1464728}], "bufferViews" : [{"buffer" : 0, "byteOffset" : 0, "byteLength" : 86160, "target" : 34963}, {"buffer" : 0, "byteOffset" : 86164, "byteLength" : 1378560, "byteStride" : 32, "target" : 34962}], "images" : [{"uri" : "data:image/png;base64,"}], "materials" : [{"pbrMetallicRoughness" : {"baseColorFactor" : [1, 1, 1, 1], "baseColorTexture" : {"index" : 0, "texCoord" : 0}, "metallicFactor" : 0, "roughnessFactor" : 1}, "emissiveFactor" : [0, 0, 0], "alphaMode" : "OPAQUE", "doubleSided" : false}], "meshes" : [{"primitives" : [{"attributes" : {"POSITION" : 1, "NORMAL" : 2, "TEXCOORD_0" : 3}, "indices" : 0, "material" : 0, "mode" : 4}]}], "nodes" : [{"mesh" : 0, "name" : "Node #0"}], "samplers" : [{"magFilter" : 9729, "minFilter" : 9729, "wrapS" : 33071, "wrapT" : 33071}], "scene" : 0, "scenes" : [{"nodes" : [0]}], "textures" : [{"sampler" : 0, "source" : 0, "name" : ""}]}