{"accessors" : [{"bufferView" : 0, "byteOffset" : 0, "componentType" : 5123, "count" : 48876, "type" : "SCALAR", "max" : [39442], "min" : [0]}, {"bufferView" : 1, "byteOffset" : 0, "componentType" : 5126, "count" : 39443, "type" : "VEC3", "max" : [4.161171913146973, 4.114134788513184, 1.5513299703598022], "min" : [-3.9922561645507812, -2.272555351257324, -1.551351547241211], "name" : "POSITION"}, {"bufferView" : 1, "byteOffset" : 12, "componentType" : 5126, "count" : 39443, "type" : "VEC3", "max" : [1.0000042915344238, 1.0000044107437134, 0.9998891949653625], "min" : [-0.9999854564666748, -1.0000044107437134, -0.9998891949653625], "name" : "NORMAL"}, {"bufferView" : 1, "byteOffset" : 24, "componentType" : 5126, "count" : 39443, "type" : "VEC2", "max" : [0.8927183151245117, 0.9138143658638], "min" : [0.07853637635707855, 0.11196400970220566], "name" : "TEXCOORD_0"}], "asset" : {"generator" : "Aspose.3D 23.6.0", "version" : "2.0"}, "buffers" : [{"uri" : "data:application/octet-stream;base64,", "byteLength" : 1661792}], "bufferViews" : [{"buffer" : 0, "byteOffset" : 0, "byteLength" : 97752, "target" : 34963}, {"buffer" : 0, "byteOffset" : 97756, "byteLength" : 1564032, "byteStride" : 32, "target" : 34962}], "images" : [{"uri" : "data:image/png;base64,"}], "materials" : [{"pbrMetallicRoughness" : {"baseColorFactor" : [1, 1, 1, 1], "baseColorTexture" : {"index" : 0, "texCoord" : 0}, "metallicFactor" : 0, "roughnessFactor" : 1}, "emissiveFactor" : [0, 0, 0], "alphaMode" : "OPAQUE", "doubleSided" : false}], "meshes" : [{"primitives" : [{"attributes" : {"POSITION" : 1, "NORMAL" : 2, "TEXCOORD_0" : 3}, "indices" : 0, "material" : 0, "mode" : 4}]}], "nodes" : [{"mesh" : 0, "name" : "Node #0"}], "samplers" : [{"magFilter" : 9729, "minFilter" : 9729, "wrapS" : 33071, "wrapT" : 33071}], "scene" : 0, "scenes" : [{"nodes" : [0]}], "textures" : [{"sampler" : 0, "source" : 0, "name" : ""}]}